<?xml version="1.0" standalone="no"?>
<!DOCTYPE svg PUBLIC "-//W3C//DTD SVG 20010904//EN"
 "http://www.w3.org/TR/2001/REC-SVG-20010904/DTD/svg10.dtd">
<svg version="1.0" xmlns="http://www.w3.org/2000/svg"
 width="640.000000pt" height="640.000000pt" viewBox="0 0 640.000000 640.000000"
 preserveAspectRatio="xMidYMid meet">

<g transform="translate(0.000000,640.000000) scale(0.100000,-0.100000)"
fill="#000000" stroke="none">
<path d="M2043 4706 c-95 -22 -179 -71 -260 -153 -57 -56 -80 -73 -110 -78
-150 -24 -246 -69 -332 -155 -168 -169 -202 -437 -82 -646 20 -34 222 -245
599 -625 348 -352 577 -590 590 -614 60 -118 68 -265 21 -380 -28 -69 -29 -69
-124 -27 -54 23 -107 72 -545 508 -334 332 -499 489 -530 504 -25 13 -71 25
-105 27 -163 13 -300 -114 -300 -277 0 -129 -6 -121 439 -568 220 -222 427
-421 458 -442 90 -60 174 -85 293 -85 78 0 115 5 168 24 80 27 174 87 220 142
32 37 37 39 89 39 75 0 199 33 266 72 113 64 208 186 246 317 20 68 21 208 1
280 -35 135 -28 126 -650 751 -320 322 -595 605 -610 629 -45 73 -66 147 -66
236 0 74 18 160 40 194 12 19 69 7 151 -31 58 -27 105 -71 440 -403 433 -430
434 -430 580 -430 111 0 170 27 272 123 l74 71 70 -70 c85 -86 162 -127 255
-135 78 -8 161 13 229 56 25 16 203 187 395 380 l350 350 5 -752 5 -753 29
-53 c128 -231 457 -218 568 23 l23 50 3 655 c3 698 1 732 -45 823 -80 160
-295 247 -464 190 l-56 -19 -18 44 c-24 60 -103 138 -172 170 -51 24 -70 27
-158 27 -156 0 -143 10 -615 -461 l-405 -404 -370 371 c-204 204 -398 390
-431 415 -123 88 -287 122 -431 90z m270 -96 c30 -11 74 -34 98 -50 24 -16
215 -201 424 -410 l380 -381 -76 -73 c-117 -113 -202 -133 -320 -74 -56 27
-110 77 -424 393 -332 334 -366 365 -433 398 -40 20 -89 39 -108 43 -19 3 -34
10 -34 14 0 14 98 98 139 119 104 53 245 62 354 21z m2080 -6 c62 -21 127 -81
157 -143 l24 -52 -385 -385 c-276 -278 -398 -393 -434 -412 -68 -35 -169 -37
-236 -4 -51 25 -179 136 -179 156 0 10 810 826 821 826 2 0 22 7 44 15 53 19
131 19 188 -1z m531 -214 c72 -27 139 -88 173 -158 l28 -57 3 -644 c2 -446 -1
-660 -8 -698 -14 -67 -61 -129 -120 -159 -57 -30 -147 -32 -205 -5 -51 23
-111 89 -124 138 -7 25 -11 293 -11 799 l0 761 38 16 c57 24 63 25 119 26 30
1 76 -8 107 -19z m-3257 -14 c-35 -91 -41 -236 -13 -331 37 -127 42 -131 657
-750 560 -564 588 -593 624 -667 109 -223 15 -494 -210 -599 -55 -26 -180 -57
-190 -48 -2 2 7 36 21 74 29 86 33 222 8 306 -42 140 -38 135 -644 744 -341
343 -577 588 -593 615 -122 215 -47 489 167 615 80 47 184 71 173 41z m-462
-1397 c34 -9 114 -84 530 -498 431 -430 498 -492 554 -519 35 -18 70 -32 78
-32 20 0 16 -14 -14 -42 -96 -89 -243 -132 -373 -108 -136 25 -139 27 -587
473 -227 226 -420 426 -428 443 -38 80 -26 158 34 225 54 61 124 80 206 58z"/>
<path d="M4795 2387 c-22 -8 -51 -19 -64 -26 -45 -25 -113 -95 -139 -146 -24
-44 -27 -61 -27 -150 0 -85 4 -107 24 -147 31 -63 89 -121 153 -154 75 -39
190 -45 270 -14 218 82 285 364 129 543 -50 57 -146 99 -234 103 -42 2 -89 -2
-112 -9z m180 -84 c69 -23 139 -95 159 -164 20 -66 20 -82 0 -150 -20 -67 -97
-148 -160 -167 -170 -50 -333 67 -334 240 0 117 62 202 179 244 50 18 98 17
156 -3z"/>
</g>
</svg>
